<svg xmlns="http://www.w3.org/2000/svg" viewBox="0 0 310.28 310.28"><path d="M155.14 0C69.6 0 0 69.6 0 155.14s69.6 155.14 155.14 155.14 155.14-69.6 155.14-155.14S240.68 0 155.14 0zM79.17 231.4c-1.74 1.18-6.13 2.22-8.7-.62l-4.72-5.95c-2.3-3.87.48-7.46 2.27-8.95 8.53-7.07 14.74-12.55 18.6-16.42 7.6-7.98 13.2-15.97 16.9-23.93.86-1.82-1.3-2.98-2.43-3.35-27.97-9.16-41.95-25.32-41.95-48.47 0-13.64 4.53-24.72 13.58-33.24 9.06-8.53 20.4-12.79 34.04-12.79 12.15 0 22.91 5.54 32.28 16.62 9.17 10.44 13.75 21.74 13.75 33.88 0 35.6-24.54 70-73.62 103.22zm106.44 0c-1.75 1.18-6.13 2.22-8.7-.62l-4.72-5.95c-2.3-3.87.48-7.46 2.27-8.95 8.53-7.07 14.73-12.55 18.6-16.42 7.6-7.98 13.2-15.97 16.9-23.93.85-1.82-1.3-2.98-2.43-3.35-27.97-9.16-41.95-25.32-41.95-48.47 0-13.64 4.52-24.72 13.58-33.24 9.06-8.53 20.4-12.79 34.04-12.79 12.15 0 22.91 5.54 32.28 16.62 9.17 10.44 13.75 21.74 13.75 33.88 0 35.6-24.54 70-73.62 103.22z"/></svg>